<svg id="Layer_3" enable-background="new 0 0 64 64" height="512" viewBox="0 0 64 64" width="512" xmlns="http://www.w3.org/2000/svg"><g><path d="m46 50v8h-44v-46l10-10h34v40" fill="#e7e4dd"/><path d="m33 39 3.293 3.293c.391.391 1.024.391 1.414 0l4.586-4.586c.391-.391.391-1.024 0-1.414l-3.293-3.293" fill="#758190"/><path d="m33 39 3.293 3.293c.391.391 1.024.391 1.414 0l1.872-1.872c.038-.448.069-.899.069-1.357 0-1.996-.383-3.898-1.053-5.658z" fill="#8892a0"/><path d="m50 62h-44v-4h40v-52h4z" fill="#d5cec2"/><path d="m12 2v10h-10" fill="#c1c8d1"/><path d="m38 42 19.172 19.172c.53.53 1.25.828 2 .828 1.562 0 2.828-1.266 2.828-2.828 0-.75-.298-1.47-.828-2l-19.172-19.172" fill="#f2c351"/><path d="m59.172 62c.252 0 .491-.043.723-.105.062-.232.105-.472.105-.723 0-.75-.298-1.47-.828-2l-19.172-19.172-2 2 19.172 19.172c.53.53 1.249.828 2 .828z" fill="#f7d881"/><circle cx="26" cy="26" fill="#a8b0bc" r="15"/><circle cx="26" cy="26" fill="#ebf7fe" r="11"/><g><path d="m16.999 7h23.999v2h-23.999z" fill="#a8b0bc"/></g><g><path d="m6.999 51h33.999v2h-33.999z" fill="#a8b0bc"/></g><g><path d="m6.999 47h33.999v2h-33.999z" fill="#a8b0bc"/></g><g><path d="m6.999 43h25.999v2h-25.999z" fill="#a8b0bc"/></g><circle cx="26" cy="22" fill="#c1c8d1" r="3"/><path d="m30 32h-8v-3c0-2.209 1.791-4 4-4 2.209 0 4 1.791 4 4z" fill="#c1c8d1"/><g><path d="m26 14c-6.617 0-12 5.383-12 12s5.383 12 12 12c6.616 0 11.999-5.383 11.999-12 0-6.618-5.383-12-11.999-12zm0 21.999c-5.515 0-10-4.486-10-10s4.485-10 10-10c5.514 0 9.999 4.486 9.999 10s-4.485 10-9.999 10z"/><path d="m61.878 56.464-10.879-10.88v-39.584c0-.553-.447-1-1-1h-2.999v-3c0-.552-.448-1-1-1h-34.001c-.265 0-.52.105-.707.293l-10 10c-.188.188-.293.442-.293.707v46c0 .552.448 1 1 1h3l.001 3c0 .552.447 1 1 1h44c.552 0 1-.447 1-1v-5.584l5.463 5.463c.724.723 1.685 1.121 2.708 1.121 2.111 0 3.828-1.717 3.828-3.828 0-1.008-.408-1.995-1.121-2.708zm-12.879-49.464v36.585l-1.999-2v-34.585zm-38-2.586v6.585h-6.585zm-8 8.585h9c.553 0 1-.447 1-1v-9h32.001v36.586l-1.656-1.656c.398-.755.289-1.71-.345-2.344l-2.619-2.619c1.026-2.109 1.619-4.467 1.619-6.967 0-8.823-7.177-16-15.999-16-8.823 0-16 7.177-16 16 0 8.822 7.177 16 16 16 2.499 0 4.857-.592 6.966-1.618l2.618 2.619c.391.39.902.585 1.415.585.322 0 .64-.086.931-.24l7.07 7.07v6.585h-42.001zm34 28.586-2.223-2.223c1.823-1.201 3.384-2.763 4.586-4.586l2.222 2.224zm-10.999-1.586c-7.72 0-14-6.28-14-14s6.28-14 14-14c7.719 0 13.999 6.28 13.999 14s-6.28 14-13.999 14zm23 21h-42.001v-2h39.001c.552 0 1-.448 1-1v-5.584l2 2zm10.171 0c-.482 0-.953-.195-1.293-.535l-18.464-18.465 2.585-2.585 18.464 18.465c.341.341.536.812.536 1.293 0 1.007-.82 1.827-1.828 1.827z"/><path d="m17 7h23.999v2h-23.999z"/><path d="m7 51h33.999v2h-33.999z"/><path d="m7 47h33.999v2h-33.999z"/><path d="m7 43h25.999v2h-25.999z"/><path d="m28.792 24.854c.743-.727 1.207-1.736 1.207-2.855 0-2.206-1.794-4-3.999-4-2.206 0-4 1.794-4 4 0 1.118.464 2.128 1.206 2.855-1.33.899-2.206 2.422-2.206 4.145v3c0 .553.447 1 1 1h7.999c.553 0 1-.447 1-1v-3c0-1.723-.876-3.245-2.207-4.145zm-2.792-4.854c1.103 0 1.999.897 1.999 2s-.896 2-1.999 2c-1.104 0-2-.897-2-2 0-1.104.896-2 2-2zm2.999 10.999h-5.999v-2c0-1.654 1.346-3 3-3 1.653 0 2.999 1.346 2.999 3z"/></g></g></svg>