<?xml version="1.0" encoding="UTF-8" standalone="no"?><!DOCTYPE svg PUBLIC "-//W3C//DTD SVG 1.1//EN" "http://www.w3.org/Graphics/SVG/1.1/DTD/svg11.dtd"><svg width="100%" height="100%" viewBox="0 0 1726 1726" version="1.1" xmlns="http://www.w3.org/2000/svg" xmlns:xlink="http://www.w3.org/1999/xlink" xml:space="preserve" xmlns:serif="http://www.serif.com/" style="fill-rule:evenodd;clip-rule:evenodd;stroke-linejoin:round;stroke-miterlimit:2;"><g id="Layer-1" serif:id="Layer 1"><rect x="0" y="0" width="1725.97" height="1725.97" style="fill:#fff;"/><path id="path24" d="M0,0l0,1725.97l1725.97,0l0,-1725.97l-1725.97,0m1569.22,615.215l0.844,0c3.169,-6.783 8.866,-18.947 15.321,-23.042c3.085,-1.951 12.212,1.833 13.029,5.436c1.635,7.203 -6.995,17.456 -8.967,24.348c3.489,-2.172 6.928,-5.842 10.956,-6.917c12.397,-3.303 13.316,9.565 13.484,17.873l0.844,0c1.424,-4.946 5.528,-15.969 10.205,-18.513c5.664,-3.081 12.676,4.589 11.858,10.086c-1.129,7.583 -6.877,15.788 -10.003,22.754c-7.004,15.574 -13.316,31.734 -23.665,45.509c-4.821,6.422 -15.777,21.797 -23.766,8.248c-2.115,-3.578 -0.304,-8.749 0.438,-12.462c1.61,-8.057 3.683,-16.183 3.75,-24.44c-9.801,5.922 -16.147,20.772 -27.811,23.857c-5.756,1.521 -17.891,-4.953 -18.271,-11.216c-0.514,-8.519 2.377,-17.745 3.582,-26.125c2.377,-16.543 4.576,-32.962 4.576,-49.723c-5.537,2.807 -8.891,9.461 -12.532,14.327c-7.332,9.774 -15.355,18.94 -22.763,28.654c-3.682,4.829 -9.649,14.478 -16.113,15.556c-4.762,0.794 -14.774,-6.003 -12.675,-11.345c3.194,-8.145 13.113,-15.952 18.642,-22.752c11.84,-14.572 22.838,-28.027 36.137,-41.328c3.734,-3.732 6.498,-9.128 10.998,-11.983c6.489,-4.107 19.03,1.193 22.965,7.038c5.942,8.823 -1.576,26.176 -1.061,36.16m-351.432,-33.469c24.499,-2.93 49.293,11.08 59.272,33.469c8.545,19.151 4.778,43.562 4.778,64.05l0,71.635c0,12.926 1.644,27.07 -2.056,39.61c-6.751,22.907 -27.727,38.081 -51.038,40.309c-23.589,2.254 -48.383,-10.121 -58.723,-31.882c-9.355,-19.701 -5.326,-45.355 -5.326,-66.578l0,-69.949c0,-12.994 -1.517,-26.976 2.047,-39.61c6.726,-23.834 27.171,-38.199 51.046,-41.054m-1078.73,131.23c11.136,-21.135 17.092,-47.291 24.72,-69.95c4.918,-14.61 9.592,-29.408 15.051,-43.823c1.546,-4.082 2.587,-12.501 6.285,-15.146c3.229,-2.311 10.807,-0.867 14.622,-0.867c3.815,0 15.1,-1.9 17.675,1.351c2.463,3.11 0.866,11.701 0.866,15.504l0,211.533c0,4.339 1.434,11.797 -0.508,15.744c-1.392,2.827 -6.203,1.954 -8.762,1.954l-25.283,0l0,-148.326c-5.312,5.492 -6.878,16.42 -9.271,23.597c-6.263,18.79 -12.275,37.67 -18.54,56.465c-2.078,6.233 -3.664,18.382 -8.296,23.089c-1.714,1.742 -4.652,1.347 -6.874,1.351c-12.176,0.024 -12.201,-5.421 -15.732,-16.012c-9.781,-29.343 -21.965,-59.205 -28.934,-89.333c-3.177,10.749 -0.843,25.034 -0.843,36.239l0,101.974c0,2.656 1.025,8.208 -1.351,10.09c-4.646,3.679 -20.594,0.877 -26.46,0.865c-2.639,-0.005 -6.375,0.519 -7.317,-2.653c-1.519,-5.114 -0.268,-12.252 -0.268,-17.573l0,-208.162c0,-3.965 -1.694,-13.114 0.866,-16.347c2.709,-3.42 15.304,-1.351 19.36,-1.351c3.614,0 9.947,-1.188 13.055,0.994c3.846,2.701 5.211,12.416 6.814,16.704c6.024,16.111 11.491,32.562 16.932,48.88c7.047,21.136 14.175,42.421 22.193,63.207m153.503,-129.276c4.057,-1.747 24.906,-2.422 27.325,1.445c3.12,4.987 3.754,14.193 4.916,19.958c2.5,12.407 5.596,24.707 8.267,37.082c8.989,41.64 18.824,83.092 27.812,124.728c3.339,15.472 6.88,30.898 10.293,46.352c0.703,3.179 4.893,13.586 1.057,15.504c-3.363,1.682 -9.523,0.508 -13.213,0.508c-4.428,0 -15.186,1.971 -18.761,-0.865c-2.756,-2.188 -2.838,-9.369 -3.488,-12.618c-1.738,-8.698 -3.316,-17.427 -5.056,-26.126c-0.689,-3.443 -0.801,-8.663 -2.982,-11.531c-2.163,-2.841 -7.044,-1.953 -10.165,-1.953l-26.126,0c-3.003,0 -8.086,-0.934 -10.459,1.351c-2.643,2.543 -2.514,8.718 -3.194,12.133l-5.393,26.968c-0.633,3.164 -0.687,8.774 -2.856,11.291c-3.538,4.104 -20.899,1.353 -26.135,1.351c-2.066,-0.001 -6.117,0.673 -7.486,-1.351c-1.827,-2.704 1.291,-10.017 1.944,-12.976c2.605,-11.795 5.114,-23.614 7.775,-35.396c10.724,-47.459 21.468,-94.917 31.962,-142.427c2.975,-13.47 5.643,-27.046 8.895,-40.452c0.89,-3.672 1.106,-11.27 5.068,-12.976m185.286,146.132l0,-121.357c0,-6.206 -2.243,-17.737 0.509,-23.33c1.219,-2.478 4.797,-1.948 7.076,-1.953l20.227,0c2.278,0.005 5.857,-0.525 7.076,1.953c1.852,3.763 0.508,10.772 0.508,14.902l0,210.69c0,4.548 1.525,12.455 -0.508,16.587c-1.219,2.478 -4.798,1.949 -7.076,1.954c-6.197,0.012 -19.676,2.537 -24.951,-0.866c-4.957,-3.197 -6.9,-15.707 -8.922,-21.045c-7.624,-20.132 -14.51,-40.538 -22.107,-60.679c-7.994,-21.196 -16.221,-42.513 -23.24,-64.05c-2.342,7.925 -0.843,17.882 -0.843,26.126l0,99.445c0,5.171 1.795,14.434 -0.508,19.116c-1.219,2.478 -4.798,1.948 -7.077,1.953l-20.226,0c-2.279,-0.005 -5.857,0.525 -7.077,-1.953c-1.851,-3.764 -0.508,-10.771 -0.508,-14.902l0,-210.69c0,-4.548 -1.524,-12.455 0.508,-16.587c1.22,-2.478 4.798,-1.949 7.077,-1.954c7.206,-0.011 16.593,-1.592 23.56,0.268c3.997,1.067 4.748,5.629 5.981,9.003c3.277,8.957 6.244,18.037 9.583,26.968c9.515,25.451 18.603,51.093 27.714,76.691c3.467,9.742 6.03,26.272 13.224,33.711m68.532,-146.132c3.393,-1.669 9.505,-0.508 13.216,-0.508c4.448,0 15.282,-1.98 18.876,0.865c2.489,1.972 1.35,8.139 1.35,10.933l0,163.495c0,16.816 1.745,38.857 24.441,37.003c23.616,-1.929 19.383,-34.229 19.383,-50.487l0,-149.169c0,-2.976 -1.096,-8.813 0.866,-11.291c1.57,-1.983 5.356,-1.35 7.562,-1.351c7.04,-0.003 16.719,-1.737 23.472,0.269c4.562,1.354 2.653,12.039 2.653,15.744l0,141.584c0,16.05 2.363,34.164 -2.046,49.723c-5.072,17.893 -19.382,31.641 -36.721,37.634c-29.623,10.238 -62.351,-7.387 -72.04,-36.792c-5.039,-15.295 -2.966,-33.004 -2.966,-48.88l0,-141.584c0,-3.661 -1.906,-15.29 1.954,-17.189m264.359,244.735l-25.283,0.843l-9.391,-1.351l-3.428,-13.819l-7.407,-37.924l-48.038,0l-7.416,38.767l-3.904,13.461l-9.749,0.865l-23.597,0c0.481,-23.19 9.92,-49.068 15.267,-71.634c9.948,-41.983 18.717,-84.293 28.071,-126.414c2.435,-10.961 5.036,-21.892 7.405,-32.868c0.806,-3.738 1.035,-11.03 3.816,-13.819c3.238,-3.245 22.913,-2.645 27.065,-0.842c4.302,1.869 4.501,11.482 5.358,15.504c3.177,14.916 6.846,29.732 9.938,44.667c12.781,61.723 28.558,122.832 41.293,184.564m52.251,-34.553l69.106,0l0,24.44c0,2.63 0.885,7.399 -0.868,9.605c-2.36,2.985 -11.697,1.351 -15.144,1.351l-77.534,0c-3.123,0 -9.524,1.267 -10.688,-2.653c-1.519,-5.115 -0.268,-12.253 -0.268,-17.573l0,-205.634c0,-4.963 -1.705,-13.774 0.508,-18.272c1.311,-2.663 5.496,-1.953 7.92,-1.954c6.616,-0.003 19.063,-2.421 25.013,0.508c3.438,1.69 1.955,9.829 1.955,12.976l0,197.206m158.565,-210.182c8.757,-3.822 25.705,-0.508 35.27,-0.508c14.672,0 29.994,-0.169 43.823,5.438c29.581,11.992 32.025,42.067 32.025,69.568l0,72.477c0,34.249 5.091,77.495 -33.71,93.165c-18.608,7.515 -40.225,5.438 -59.836,5.438c-4.054,0 -16.527,2.063 -19.232,-1.351c-2.039,-2.572 -0.994,-8.218 -0.994,-11.29l0,-211.533c0,-4.627 -2.394,-19.198 2.654,-21.404m409.456,61.014c9.135,-6.442 16.383,-20.945 27.811,-23.854c5.731,-1.458 17.192,5.213 17.647,11.216c0.607,8.003 -1.947,16.571 -3.067,24.436c-2.495,17.477 -4.467,34.529 -4.467,52.251c9.228,-8.073 16.012,-20.083 23.943,-29.496c7.559,-8.974 14.394,-23.134 24.937,-28.892c4.433,-2.418 15.482,3.265 15.38,8.678c-0.126,6.636 -13.003,16.797 -16.964,21.899c-11.63,14.956 -22.89,28.827 -36.34,42.142c-4.197,4.15 -7.829,10.45 -12.717,13.698c-6.633,4.405 -19.047,-1.014 -23.016,-6.993c-5.798,-8.744 1.096,-26.425 1.18,-36.205c-5.284,6.259 -9.456,19.867 -17.007,23.527c-3.321,1.608 -13.012,-2.691 -12.928,-6.709c0.151,-7.301 6.759,-16.935 9.708,-23.56c-3.649,2.101 -6.902,5.71 -10.955,6.979c-11.791,3.69 -13.485,-8.131 -13.485,-16.25c-4.829,4.142 -5.907,14.866 -11.882,17.186c-8.571,3.324 -12.431,-8.757 -9.835,-14.658c9.447,-21.416 17.799,-45.377 32.185,-64.049c4.483,-5.818 17.908,-22.699 24.423,-7.408c1.441,3.391 -0.329,8.212 -1.011,11.622c-1.66,8.282 -3.54,15.939 -3.54,24.44m-375.365,-26.945c-2.596,2.056 -1.349,8.845 -1.349,11.775l0,153.382c0,3.078 -0.884,7.86 0.506,10.688c1.39,2.827 6.202,1.954 8.764,1.954c8.116,0.001 17.412,1.051 24.44,-3.918c12.077,-8.541 10.114,-26.951 10.114,-39.906l0,-75.848c0,-13.677 1.786,-28.813 -1.821,-42.138c-4.011,-14.817 -15.962,-16.856 -29.362,-16.856c-2.975,0 -8.815,-1.096 -11.293,0.867m162.148,-0.472c-19.687,3.714 -18.541,23.58 -18.541,39.215c0,37.937 -3.464,77.711 0.143,115.458c1.525,15.987 12.793,26.225 29.353,23.32c19.367,-3.395 18.541,-23.241 18.541,-38.489c0,-38.213 3.489,-78.279 -0.143,-116.301c-1.517,-15.853 -12.861,-26.314 -29.353,-23.203m234.287,53.542c3.936,-2.408 5.604,-7.167 8.04,-10.956c5.023,-7.801 12.414,-15.008 14.141,-24.439c1.046,-5.73 -8.722,-13.448 -14.402,-11.954c-3.574,0.94 -3.835,8.19 -4.509,11.111c-2.596,11.312 -4.492,24.663 -3.27,36.238m108.716,-32.867c-6.565,10.724 -18.642,22.82 -20.673,35.395c-0.91,5.642 8.706,13.828 14.445,12.022c3.472,-1.094 3.793,-8.256 4.374,-11.179c2.377,-11.886 3.54,-24.118 3.54,-36.238l-1.686,0m-1256.56,17.698c-3.734,28.905 -15.771,58.473 -16.013,87.647l33.711,0c-0.603,-29.206 -12.273,-58.688 -16.013,-87.647l-1.685,0m436.55,0c-6.997,20.662 -8.737,44.325 -13.02,65.735c-0.776,3.881 -5.916,18.207 -2.472,21.045c4.36,3.594 20.022,0.878 25.605,0.866c2.1,-0.004 6.014,0.58 6.933,-1.953c1.862,-5.129 -2.344,-15.553 -3.394,-20.801c-2.975,-14.878 -5.887,-29.767 -8.762,-44.667c-1.203,-6.239 -1.223,-14.948 -4.89,-20.226m811.578,86.804c7.366,-5.783 9.279,-17.809 17.125,-23.042c3.346,-2.23 12.633,2.237 13.054,6.224c0.742,7.13 -6.565,16.96 -9.11,23.56c5.925,-3.373 19.207,-13.147 23.8,-1.597c1.197,2.998 0.413,7.611 0.64,10.868c4.551,-4.146 6.034,-14.988 11.883,-17.177c7.618,-2.846 12.734,8.015 10.197,13.806c-9.304,21.274 -17.715,45.569 -32.016,64.05c-4.425,5.714 -18.431,24.355 -24.954,8.339c-1.467,-3.616 0.287,-8.111 0.96,-11.71c1.525,-8.131 3.565,-16.118 3.59,-24.441c-9.178,6.469 -16.417,20.93 -27.811,23.995c-5.773,1.552 -17.715,-5.136 -18.111,-11.354c-0.522,-8.29 2.478,-17.118 3.539,-25.282c2.2,-16.908 4.459,-33.424 4.459,-50.566c-10.307,7.321 -17.892,21.512 -26.126,31.183c-6.86,8.068 -13.518,22.527 -23.597,26.941c-4.45,1.948 -16.072,-4.709 -14.496,-10.098c2.099,-7.216 11.723,-14.319 16.282,-20.215c15.044,-19.45 30.239,-38.568 48.181,-55.429c6.447,-6.058 22.392,-0.46 25.376,7.405c3.261,8.629 -0.304,25.959 -2.866,34.54m-137.37,30.34c4.543,-4.545 8.639,-9.633 13.484,-13.839c8.993,-7.797 13.788,-13.553 25.283,-7.414c2.663,1.423 5.647,2.972 6.473,6.117c2.174,8.242 -1.795,18.755 -2.857,26.934c-2.234,17.188 -4.458,33.985 -4.458,51.409c5.671,-4.352 9.371,-11.212 13.678,-16.855c6.792,-8.897 14.276,-17.167 20.984,-26.126c3.675,-4.914 10.063,-15.525 16.746,-16.31c4.593,-0.539 14.428,6.082 12.641,11.253c-2.595,7.539 -12.38,14.846 -17.361,21.069c-12.177,15.223 -23.462,29.34 -37.41,43.015c-3.775,3.7 -6.506,9.203 -10.972,12.102c-6.726,4.349 -19.08,-1.087 -23.084,-7.113c-5.722,-8.621 1.156,-26.478 1.18,-36.205c-5.183,6.306 -9.27,19.975 -16.931,23.53c-3.607,1.669 -12.414,-2.52 -12.439,-6.712c-0.047,-7.59 6.439,-16.538 9.144,-23.56c-6.076,4.004 -19.004,13.376 -23.808,1.607c-1.273,-3.104 -0.556,-7.556 -0.632,-10.877c-4.391,4.33 -5.773,13.886 -11.065,16.828c-6.945,3.86 -13.687,-6.708 -11.386,-12.615c8.394,-21.625 18.541,-46.266 32.455,-64.892c4.382,-5.857 18.203,-23.938 24.887,-8.251c1.449,3.413 -0.363,8.176 -0.97,11.622c-1.5,8.54 -3.582,16.542 -3.582,25.283m21.069,25.283c4.088,-2.301 5.706,-7.121 8.175,-10.956c5.048,-7.834 12.743,-14.842 14.175,-24.44c0.86,-5.716 -8.823,-13.506 -14.529,-11.954c-3.43,0.933 -3.7,8.294 -4.349,11.111c-2.739,11.9 -3.472,24.065 -3.472,36.239m108.716,-32.868c-5.587,10.074 -23.066,26.497 -20.723,38.731c0.86,4.504 13.796,11.954 16.678,6.65c6.532,-12.037 5.731,-32.071 5.731,-45.381l-1.686,0m-1207.68,315.192l25.283,0c2.511,0 7.461,-0.901 9.247,1.349c2.147,2.714 0.702,8.874 0.942,12.136c0.636,8.638 5.93,17.521 14.251,20.597c11.843,4.382 27.642,1.07 32.906,-11.327c3.346,-7.88 2.49,-16.94 2.49,-25.283c0,-7.45 0.506,-15.962 -3.173,-22.754c-3.636,-6.717 -11.242,-9.835 -17.896,-12.76c-12.913,-5.663 -26.943,-9.742 -38.767,-17.58c-31.6,-20.951 -31.087,-79.034 -6.666,-105.345c23.237,-25.038 64.705,-22.114 87.538,1.686c10.549,10.998 14.36,24.726 14.36,39.609c0,3.312 1.301,10.24 -0.866,12.979c-1.57,1.98 -5.356,1.348 -7.562,1.348c-5.716,0 -21.08,2.731 -25.617,-0.868c-2.425,-1.921 -1.265,-7.391 -1.384,-10.088c-0.255,-5.764 -1.926,-12.009 -5.115,-16.855c-14.208,-21.583 -40.699,-5.983 -42.746,15.17c-0.749,7.736 -1.338,18.178 2.249,25.283c4.06,8.04 12.53,11.613 20.362,14.933c14.327,6.06 30.726,10.004 42.98,20.016c9.333,7.619 13.791,18.364 15.803,29.943c4.468,25.721 4.595,62.735 -14.972,82.591c-24.892,25.249 -72.012,20.529 -92.755,-7.585c-10.55,-14.302 -10.892,-30.213 -10.892,-47.195m1245.6,-178.42c23.563,-2.823 48.989,12.667 57.771,34.309c7.77,19.165 4.593,42.096 4.593,62.364l0,69.95c0,13.231 1.584,27.549 -1.821,40.452c-6.126,23.286 -26.58,39.686 -50.43,41.995c-24.246,2.343 -48.973,-9.506 -59.853,-31.882c-9.827,-20.218 -5.883,-47.312 -5.883,-69.106l0,-62.364c0,-32.641 0.548,-66.098 35.396,-81.015c6.38,-2.731 13.367,-3.885 20.227,-4.703m-1452.08,171.679l7.374,-47.194l12.92,-79.22l5.197,-31.182l2.826,-10.931l10.45,-0.868l26.125,0c-16.222,62.702 -26.567,127.788 -39.272,191.307c-2.643,13.214 -5.247,26.471 -8.217,39.61c-0.775,3.43 -0.791,11.149 -3.698,13.459c-1.743,1.382 -4.899,0.868 -6.963,0.868c-6.322,0 -14.871,1.508 -20.948,-0.27c-4.388,-1.281 -4.598,-10.315 -5.346,-14.057c-2.98,-14.9 -6.122,-29.766 -9.102,-44.666c-12.36,-61.808 -22.14,-125.243 -37.924,-186.25l26.125,0c2.772,0 8.023,-0.987 10.331,0.868c2.329,1.871 2.203,7.366 2.66,10.088l4.916,29.496c5.145,30.879 9.913,61.817 15.028,92.704c1.6,9.649 1.067,28.822 7.518,36.239m190.464,-169.395l0,22.754l-0.866,8.765l-15.989,1.348l-37.925,0l-13.818,1.349l-1.351,18.035l0,52.251l41.295,0c4.796,0 13.086,-1.593 17.43,0.624c2.457,1.255 1.948,4.66 1.953,6.961c0.011,4.88 2.632,22.106 -1.35,25.257c-3.233,2.562 -12.382,0.869 -16.347,0.869l-42.981,0l0,53.094c0,4.112 -1.938,15.077 1.953,17.672c3.283,2.191 10.264,0.868 14.059,0.868l37.082,0c4.223,0 15.774,-2.191 16.73,3.422c1.267,7.433 0.128,16.004 0.125,23.547c-0.001,2.208 0.632,5.992 -1.351,7.559c-3.353,2.655 -13.063,0.868 -17.19,0.868l-75.848,0c-2.656,0 -8.208,1.029 -10.09,-1.348c-2.656,-3.354 -0.866,-13.063 -0.866,-17.192l0,-226.703l105.345,0m262.098,0l0,24.44c-0.004,2.436 0.592,6.582 -2.051,7.922c-6.711,3.405 -21.6,0.506 -29.131,0.506c-3.466,0 -8.667,-0.869 -9.845,3.421c-1.704,6.203 -0.268,14.597 -0.268,21.019l0,187.935l-34.553,0l0,-187.935c0,-6.389 1.473,-14.884 -0.366,-21.019c-1.341,-4.483 -6.931,-3.421 -10.59,-3.421c-7.444,0 -21.704,2.781 -28.386,-0.506c-2.662,-1.315 -1.952,-5.495 -1.953,-7.922l0,-24.44l117.143,0m50.566,0l0,245.243l-25.283,0l-9.247,-1.348l-0.866,-17.192l0,-226.703l35.396,0m125.571,117.144c24.044,10.509 22.755,38.741 22.755,60.679c0,8.233 -0.48,16.4 -2.442,24.44c-9.434,38.649 -43.805,42.98 -77.62,42.98c-8.269,0 -24.349,3.136 -31.757,-0.505c-3.618,-1.787 -1.954,-11.31 -1.954,-14.664l0,-230.074c26.415,0 58.925,-5.208 83.434,6.312c24.464,11.504 30.339,36.45 30.339,61.109c0,10.088 -0.052,20.159 -4.489,29.497c-4.197,8.832 -12.605,12.894 -18.266,20.226m90.176,-117.144l0,161.81c0,15.541 -4.593,46.757 17.698,49.563c27.979,3.531 26.125,-27.28 26.125,-46.192l0,-165.181l34.553,0l0,160.125c0,28.173 2.908,54.754 -21.068,74.727c-30.475,25.393 -77.706,8.984 -89.738,-27.533c-6.962,-21.136 -2.966,-47.936 -2.966,-69.949l0,-137.37l35.396,0m147.483,0l0,209.848l69.106,0l0,35.396l-104.502,0l0,-245.244l35.396,0m160.967,0c2.587,20.024 8.773,40.107 13.13,59.836c8.875,40.191 17.96,80.324 26.834,120.515c4.601,20.833 13.054,43.588 13.973,64.893l-25.283,0c-2.554,0 -7.273,0.884 -9.135,-1.349c-2.133,-2.579 -2.192,-8.099 -2.832,-11.293c-1.854,-9.262 -3.54,-18.549 -5.394,-27.811c-1.096,-5.478 -0.978,-12.321 -7.922,-12.625c-10.071,-0.438 -20.26,-0.011 -30.339,-0.011c-3.228,0 -8.74,-0.987 -11.293,1.466c-2.394,2.301 -2.41,8.065 -3.034,11.175c-1.854,9.254 -3.396,18.6 -5.411,27.811c-0.674,3.043 -0.893,9.776 -3.514,11.774c-3.834,2.924 -15.026,0.868 -19.729,0.868c-4.753,0 -9.742,0.514 -14.327,-0.842l39.256,-176.137l10.467,-47.195l5.006,-19.721l8.478,-1.348l21.069,0m156.754,146.64l0.843,0l0,-146.64l35.396,0l0,226.703c0,4.129 1.787,13.838 -0.868,17.192c-1.677,2.124 -6.043,1.348 -8.403,1.348c-6.219,0 -22.147,2.925 -25.459,-3.421c-10.442,-20.007 -16.426,-44.397 -24.002,-65.685c-9.144,-25.679 -20.901,-51.257 -28.073,-77.534l-0.843,0l0,134.842l-0.868,10.45l-9.245,1.348l-25.283,0l0,-245.243l23.597,0l9.684,0.868l5.225,11.773l10.374,28.654l37.924,105.345m67.421,-146.64c29.893,0 71.711,-7.635 96.067,13.737c11.781,10.349 17.63,28.216 17.706,43.571c0.169,35.396 0,70.792 0,106.188c0,20.285 1.214,42.618 -11.596,59.836c-17.791,23.917 -48.712,21.911 -75.208,21.911c-5.006,0 -22.881,2.722 -26.101,-1.348c-1.753,-2.208 -0.868,-6.978 -0.868,-9.608l0,-234.287m-678.422,32.868l0,67.421c11.173,0 25.766,2.3 35.383,-4.754c14.991,-10.989 13.918,-47.371 -0.831,-57.914c-9.51,-6.801 -23.556,-4.753 -34.552,-4.753m713.818,0l0,160.967c0,4.551 -1.525,12.456 0.506,16.585c1.525,3.093 7.644,1.973 10.45,1.956c10.417,-0.048 22.544,-0.97 28.351,-10.956c6.455,-11.108 4.517,-27.264 4.517,-39.61l0,-83.433c0,-12.144 1.618,-28.856 -7.062,-38.683c-8.479,-9.599 -25.384,-6.826 -36.762,-6.826m163.496,0.395c-19.864,3.742 -18.541,23.53 -18.541,39.214l0,80.062c0,12.979 -1.913,27.668 0.388,40.453c2.57,14.243 15.633,20.555 29.108,18.296c19.199,-3.211 18.541,-23.361 18.541,-38.522c0,-37.663 3.43,-77.138 -0.143,-114.616c-1.525,-15.987 -12.009,-28.157 -29.353,-24.887m-439.078,38.371c-3.692,28.595 -9.633,58.884 -16.856,86.805c8.967,2.646 26.429,2.646 35.396,0l-8.764,-43.824l-8.091,-42.981l-1.685,0m-438.236,59.836l0,78.377c11.42,0 25.788,2.233 35.393,-5.385c13.074,-10.375 10.529,-32.994 9.346,-47.709c-0.601,-7.467 -2.376,-14.95 -8.513,-19.897c-9.675,-7.804 -24.677,-5.386 -36.226,-5.386Z" style="fill:#ff8a00;fill-rule:nonzero;"/></g></svg>