<?xml version="1.0" encoding="UTF-8" standalone="no"?><!DOCTYPE svg PUBLIC "-//W3C//DTD SVG 1.1//EN" "http://www.w3.org/Graphics/SVG/1.1/DTD/svg11.dtd"><svg width="100%" height="100%" viewBox="0 0 6648 6648" version="1.1" xmlns="http://www.w3.org/2000/svg" xmlns:xlink="http://www.w3.org/1999/xlink" xml:space="preserve" xmlns:serif="http://www.serif.com/" style="fill-rule:evenodd;clip-rule:evenodd;stroke-linejoin:round;stroke-miterlimit:2;"><g id="Layer-1" serif:id="Layer 1"><g><clipPath id="_clip1"><rect x="0" y="1678.8" width="6609.01" height="3304.51"/></clipPath><g clip-path="url(#_clip1)"><rect x="0" y="0" width="6647.32" height="6647.32" style="fill:#fff;"/><path id="path24" d="M0,0l0,6647.32l6647.32,0l0,-6647.32l-6647.32,0m6043.62,2369.41l3.251,0c12.205,-26.124 34.146,-72.972 59.006,-88.743c11.882,-7.514 47.033,7.059 50.18,20.936c6.297,27.741 -26.941,67.229 -34.536,93.772c13.438,-8.365 26.683,-22.499 42.196,-26.639c47.745,-12.721 51.284,36.838 51.931,68.835l3.251,0c5.484,-19.049 21.29,-61.502 39.303,-71.3c21.814,-11.866 48.82,17.674 45.669,38.844c-4.348,29.205 -26.485,60.806 -38.525,87.634c-26.975,59.981 -51.284,122.219 -91.142,175.271c-18.567,24.734 -60.763,83.948 -91.531,31.766c-8.146,-13.78 -1.171,-33.695 1.687,-47.995c6.2,-31.031 14.184,-62.327 14.442,-94.127c-37.747,22.807 -62.187,80 -107.11,91.881c-22.168,5.858 -68.904,-19.075 -70.368,-43.196c-1.979,-32.81 9.155,-68.343 13.796,-100.617c9.155,-63.713 17.624,-126.948 17.624,-191.501c-21.325,10.811 -34.243,36.438 -48.265,55.179c-28.238,37.643 -59.138,72.944 -87.669,110.356c-14.18,18.598 -37.161,55.76 -62.056,59.912c-18.341,3.058 -56.9,-23.12 -48.816,-43.694c12.301,-31.369 50.502,-61.437 71.797,-87.626c45.6,-56.122 87.957,-107.941 139.176,-159.168c14.381,-14.374 25.026,-35.155 42.357,-46.151c24.991,-15.818 73.291,4.595 88.446,27.106c22.885,33.98 -6.07,100.813 -4.086,139.265m-1353.49,-128.901c94.354,-11.285 189.845,42.673 228.277,128.901c32.91,73.757 18.402,167.772 18.402,246.679l0,275.891c0,49.783 6.332,104.256 -7.918,152.552c-26.001,88.223 -106.787,146.663 -196.565,155.244c-90.85,8.681 -186.34,-38.979 -226.163,-122.789c-36.03,-75.875 -20.513,-174.678 -20.513,-256.415l0,-269.398c0,-50.044 -5.842,-103.894 7.884,-152.552c25.904,-91.793 104.645,-147.118 196.596,-158.113m-4154.57,505.412c42.888,-81.398 65.827,-182.134 95.205,-269.401c18.941,-56.269 36.942,-113.261 57.967,-168.778c5.954,-15.721 9.963,-48.146 24.206,-58.333c12.436,-8.9 41.621,-3.339 56.314,-3.339c14.693,0 58.155,-7.317 68.073,5.203c9.486,11.978 3.335,45.065 3.335,59.712l0,814.687c0,16.711 5.523,45.435 -1.957,60.636c-5.361,10.888 -23.889,7.526 -33.745,7.526l-97.374,0l0,-571.256c-20.458,21.152 -26.489,63.239 -35.706,90.88c-24.121,72.367 -47.275,145.081 -71.404,217.467c-8.003,24.005 -14.111,70.795 -31.95,88.924c-6.602,6.709 -17.917,5.188 -26.475,5.203c-46.894,0.092 -46.99,-20.878 -60.589,-61.668c-37.67,-113.01 -84.595,-228.019 -111.435,-344.053c-12.236,41.399 -3.247,96.415 -3.247,139.57l0,392.737c0,10.229 3.948,31.612 -5.203,38.86c-17.893,14.169 -79.315,3.378 -101.907,3.332c-10.163,-0.02 -24.552,1.999 -28.18,-10.218c-5.85,-19.696 -1.032,-47.187 -1.032,-67.68l0,-801.705c0,-15.27 -6.524,-50.506 3.335,-62.958c10.433,-13.171 58.941,-5.203 74.562,-5.203c13.919,0 38.31,-4.575 50.28,3.828c14.812,10.403 20.069,47.819 26.243,64.333c23.2,62.05 44.256,125.408 65.211,188.254c27.14,81.403 54.593,163.379 85.473,243.433m591.194,-497.887c15.625,-6.729 95.921,-9.328 105.238,5.565c12.016,19.206 14.458,54.662 18.933,76.865c9.628,47.784 21.552,95.155 31.839,142.816c34.62,160.37 72.498,320.016 107.114,480.371c12.86,59.588 26.497,118.999 39.642,178.518c2.707,12.243 18.845,52.324 4.071,59.711c-12.952,6.478 -36.677,1.957 -50.888,1.957c-17.054,0 -58.487,7.591 -72.255,-3.332c-10.615,-8.426 -10.93,-36.083 -13.434,-48.596c-6.693,-33.499 -12.771,-67.118 -19.472,-100.62c-2.654,-13.261 -3.085,-33.365 -11.485,-44.41c-8.33,-10.942 -27.129,-7.522 -39.149,-7.522l-100.62,0c-11.566,0 -31.142,-3.597 -40.282,5.203c-10.179,9.794 -9.682,33.576 -12.301,46.729l-20.77,103.863c-2.438,12.185 -2.646,33.792 -11,43.485c-13.626,15.806 -80.489,5.211 -100.655,5.204c-7.957,-0.004 -23.558,2.591 -28.831,-5.204c-7.036,-10.414 4.972,-38.579 7.487,-49.975c10.033,-45.426 19.696,-90.946 29.944,-136.322c41.302,-182.781 82.681,-365.559 123.097,-548.536c11.458,-51.878 21.733,-104.164 34.258,-155.795c3.428,-14.142 4.26,-43.405 19.519,-49.975m713.601,562.805l0,-467.388c0,-23.902 -8.639,-68.312 1.96,-89.852c4.695,-9.544 18.475,-7.503 27.252,-7.522l77.902,0c8.773,0.019 22.557,-2.022 27.252,7.522c7.133,14.492 1.956,41.487 1.956,57.393l0,811.441c0,17.516 5.874,47.968 -1.956,63.882c-4.695,9.544 -18.479,7.506 -27.252,7.526c-23.867,0.046 -75.779,9.77 -96.095,-3.336c-19.091,-12.313 -26.575,-60.493 -34.362,-81.051c-29.363,-77.536 -55.883,-156.126 -85.142,-233.697c-30.788,-81.633 -62.473,-163.732 -89.505,-246.679c-9.02,30.522 -3.247,68.87 -3.247,100.621l0,382.997c0,19.916 6.913,55.591 -1.956,73.623c-4.695,9.543 -18.479,7.502 -27.256,7.522l-77.898,0c-8.777,-0.02 -22.557,2.021 -27.256,-7.522c-7.129,-14.497 -1.956,-41.483 -1.956,-57.393l0,-811.441c0,-17.516 -5.87,-47.969 1.956,-63.882c4.699,-9.544 18.479,-7.507 27.256,-7.526c27.753,-0.042 63.906,-6.131 90.738,1.032c15.394,4.11 18.286,21.68 23.035,34.674c12.621,34.497 24.048,69.467 36.907,103.863c36.646,98.021 71.647,196.777 106.737,295.364c13.352,37.52 23.223,101.183 50.93,129.833m263.941,-562.806c13.067,-6.427 36.607,-1.956 50.899,-1.956c17.131,0 58.857,-7.626 72.698,3.331c9.586,7.595 5.2,31.347 5.2,42.107l0,629.677c0,64.764 6.72,149.652 94.13,142.511c90.954,-7.429 74.651,-131.828 74.651,-194.443l0,-574.502c0,-11.462 -4.221,-33.942 3.335,-43.486c6.047,-7.637 20.628,-5.199 29.124,-5.203c27.114,-0.011 64.391,-6.69 90.399,1.036c17.57,5.215 10.218,46.367 10.218,60.636l0,545.29c0,61.814 9.101,131.577 -7.88,191.5c-19.534,68.912 -74.647,121.861 -141.425,144.942c-114.089,39.43 -240.136,-28.45 -277.452,-141.699c-19.407,-58.906 -11.423,-127.11 -11.423,-188.254l0,-545.29c0,-14.099 -7.34,-58.887 7.526,-66.2m1018.14,942.56l-97.374,3.247l-36.168,-5.204l-13.202,-53.221l-28.527,-146.059l-185.011,0l-28.562,149.305l-15.036,51.843l-37.546,3.332l-90.881,0c1.853,-89.313 38.206,-188.978 58.799,-275.888c38.313,-161.691 72.085,-324.642 108.111,-486.865c9.378,-42.214 19.395,-84.313 28.519,-126.586c3.104,-14.396 3.986,-42.48 14.697,-53.222c12.471,-12.497 88.246,-10.186 104.237,-3.242c16.568,7.198 17.335,44.221 20.635,59.711c12.236,57.447 26.367,114.508 38.275,172.028c49.224,237.717 109.987,473.069 159.034,710.821m201.237,-133.076l266.151,0l0,94.127c0,10.129 3.409,28.496 -3.343,36.992c-9.089,11.497 -45.049,5.204 -58.325,5.204l-298.61,0c-12.028,0 -36.68,4.879 -41.163,-10.218c-5.851,-19.7 -1.033,-47.191 -1.033,-67.68l0,-791.968c0,-19.115 -6.566,-53.049 1.957,-70.372c5.049,-10.257 21.167,-7.522 30.503,-7.526c25.48,-0.011 73.418,-9.324 96.333,1.957c13.241,6.508 7.53,37.855 7.53,49.975l0,759.509m610.689,-809.484c33.726,-14.72 98.999,-1.957 135.837,-1.957c56.507,0 115.518,-0.651 168.778,20.944c113.927,46.185 123.34,162.015 123.34,267.93l0,279.135c0,131.905 19.607,298.46 -129.829,358.811c-71.666,28.943 -154.921,20.944 -230.45,20.944c-15.613,0 -63.651,7.945 -74.069,-5.204c-7.853,-9.905 -3.828,-31.65 -3.828,-43.481l0,-814.688c0,-17.82 -9.22,-73.938 10.221,-82.434m1576.96,234.986c35.182,-24.811 63.096,-80.667 107.11,-91.87c22.072,-5.616 66.212,20.077 67.964,43.197c2.338,30.822 -7.498,63.82 -11.812,94.111c-9.609,67.31 -17.204,132.983 -17.204,201.237c35.541,-31.092 61.668,-77.347 92.213,-113.599c29.113,-34.562 55.437,-89.098 96.041,-111.274c17.073,-9.312 59.627,12.575 59.234,33.422c-0.485,25.558 -50.079,64.692 -65.334,84.341c-44.791,57.601 -88.158,111.023 -139.958,162.304c-16.164,15.983 -30.152,40.246 -48.978,52.756c-25.546,16.965 -73.357,-3.906 -88.643,-26.933c-22.33,-33.676 4.222,-101.772 4.545,-139.438c-20.35,24.105 -36.418,76.515 -65.5,90.611c-12.79,6.193 -50.114,-10.364 -49.79,-25.839c0.581,-28.119 26.031,-65.223 37.389,-90.738c-14.054,8.092 -26.582,21.991 -42.192,26.879c-45.411,14.211 -51.935,-31.316 -51.935,-62.585c-18.598,15.953 -22.75,57.254 -45.762,66.19c-33.01,12.801 -47.876,-33.727 -37.878,-56.454c36.384,-82.48 68.55,-174.762 123.956,-246.675c17.265,-22.407 68.97,-87.422 94.061,-28.531c5.55,13.06 -1.267,31.628 -3.893,44.761c-6.394,31.897 -13.634,61.387 -13.634,94.127m-1445.66,-103.775c-9.999,7.919 -5.196,34.065 -5.196,45.35l0,590.728c0,11.854 -3.404,30.271 1.949,41.163c5.353,10.888 23.886,7.526 33.753,7.526c31.258,0.003 67.06,4.047 94.127,-15.09c46.513,-32.894 38.953,-103.798 38.953,-153.692l0,-292.117c0,-52.675 6.878,-110.969 -7.014,-162.289c-15.447,-57.065 -61.475,-64.918 -113.083,-64.918c-11.458,0 -33.95,-4.221 -43.493,3.339m624.489,-1.818c-75.822,14.304 -71.408,90.815 -71.408,151.031c0,146.109 -13.341,299.292 0.55,444.669c5.874,61.572 49.271,101.002 113.049,89.814c74.589,-13.076 71.408,-89.509 71.408,-148.235c0,-147.171 13.437,-301.48 -0.551,-447.916c-5.842,-61.055 -49.532,-101.344 -113.048,-89.363m902.321,206.209c15.159,-9.274 21.583,-27.602 30.965,-42.195c19.345,-30.044 47.81,-57.801 54.462,-94.123c4.028,-22.068 -33.592,-51.793 -55.467,-46.039c-13.765,3.62 -14.77,31.542 -17.366,42.792c-9.998,43.567 -17.3,94.986 -12.594,139.565m418.703,-126.582c-25.284,41.302 -71.797,87.888 -79.619,136.319c-3.504,21.729 33.53,53.256 55.633,46.301c13.372,-4.214 14.608,-31.797 16.846,-43.055c9.155,-45.777 13.634,-92.887 13.634,-139.565l-6.494,0m-4839.45,68.161c-14.381,111.324 -60.739,225.2 -61.671,337.56l129.833,0c-2.323,-112.483 -47.268,-226.028 -61.672,-337.56l-6.49,0m1681.31,0c-26.948,79.577 -33.649,170.711 -50.144,253.169c-2.989,14.947 -22.785,70.121 -9.521,81.051c16.792,13.842 77.112,3.382 98.614,3.336c8.088,-0.016 23.162,2.234 26.702,-7.522c7.171,-19.754 -9.028,-59.9 -13.072,-80.112c-11.458,-57.3 -22.673,-114.643 -33.746,-172.028c-4.633,-24.029 -4.71,-57.57 -18.833,-77.898m3125.67,334.313c28.369,-22.272 35.736,-68.589 65.954,-88.743c12.887,-8.588 48.654,8.616 50.276,23.971c2.857,27.46 -25.284,65.319 -35.086,90.738c22.819,-12.991 73.973,-50.634 91.662,-6.151c4.61,11.547 1.591,29.313 2.465,41.857c17.527,-15.968 23.239,-57.724 45.765,-66.155c29.34,-10.961 49.044,30.869 39.273,53.172c-35.833,81.933 -68.227,175.502 -123.305,246.679c-17.042,22.006 -70.984,93.799 -96.107,32.116c-5.65,-13.926 1.106,-31.238 3.698,-45.099c5.873,-31.315 13.73,-62.076 13.826,-94.131c-35.348,24.914 -63.228,80.609 -107.11,92.413c-22.234,5.978 -68.227,-19.78 -69.752,-43.728c-2.01,-31.928 9.544,-65.927 13.63,-97.37c8.473,-65.118 17.173,-128.727 17.173,-194.747c-39.696,28.195 -68.908,82.85 -100.62,120.096c-26.42,31.073 -52.063,86.76 -90.88,103.76c-17.139,7.502 -61.899,-18.136 -55.83,-38.891c8.084,-27.792 45.15,-55.148 62.708,-77.855c57.94,-74.909 116.461,-148.539 185.562,-213.477c24.83,-23.331 86.239,-1.771 97.732,28.519c12.559,33.234 -1.171,99.978 -11.038,133.026m-529.06,116.85c17.497,-17.504 33.272,-37.1 51.931,-53.299c34.636,-30.029 53.103,-52.197 97.374,-28.554c10.256,5.481 21.749,11.446 24.93,23.559c8.373,31.743 -6.913,72.232 -11.003,103.732c-8.604,66.197 -17.17,130.888 -17.17,197.994c21.841,-16.761 36.091,-43.181 52.679,-64.914c26.158,-34.266 54.982,-66.116 80.817,-100.621c14.154,-18.925 38.756,-59.792 64.495,-62.815c17.689,-2.076 55.567,23.424 48.684,43.339c-9.994,29.035 -47.679,57.177 -66.863,81.144c-46.898,58.629 -90.36,112.999 -144.079,165.666c-14.539,14.25 -25.057,35.444 -42.257,46.609c-25.904,16.75 -73.484,-4.186 -88.904,-27.395c-22.038,-33.202 4.452,-101.976 4.544,-139.438c-19.961,24.287 -35.702,76.931 -65.207,90.623c-13.892,6.428 -47.811,-9.706 -47.907,-25.851c-0.181,-29.231 24.799,-63.693 35.217,-90.737c-23.401,15.42 -73.191,51.515 -91.693,6.189c-4.903,-11.955 -2.142,-29.101 -2.434,-41.891c-16.912,16.676 -22.234,53.479 -42.615,64.81c-26.748,14.866 -52.714,-25.835 -43.852,-48.585c32.328,-83.285 71.408,-178.186 124.996,-249.922c16.876,-22.557 70.106,-92.193 95.848,-31.777c5.581,13.145 -1.398,31.489 -3.736,44.76c-5.777,32.891 -13.795,63.709 -13.795,97.374m81.144,97.374c15.744,-8.862 21.976,-27.426 31.485,-42.196c19.441,-30.171 49.077,-57.161 54.593,-94.127c3.312,-22.014 -33.981,-52.016 -55.957,-46.039c-13.21,3.594 -14.25,31.943 -16.749,42.793c-10.549,45.831 -13.372,92.682 -13.372,139.569m418.703,-126.586c-21.517,38.798 -88.835,102.049 -79.811,149.166c3.312,17.347 53.133,46.039 64.233,25.612c25.157,-46.359 22.072,-123.517 22.072,-174.778l-6.494,0m-4651.2,1213.91l97.374,0c9.671,0 28.735,-3.47 35.614,5.196c8.268,10.452 2.703,34.177 3.628,46.74c2.449,33.268 22.838,67.479 54.885,79.326c45.612,16.877 106.459,4.121 126.733,-43.624c12.886,-30.349 9.59,-65.242 9.59,-97.374c0,-28.692 1.948,-61.475 -12.221,-87.633c-14.003,-25.87 -43.297,-37.878 -68.924,-49.144c-49.732,-21.81 -103.767,-37.52 -149.305,-67.706c-121.703,-80.69 -119.727,-304.388 -25.673,-405.721c89.494,-96.43 249.202,-85.169 337.14,6.493c40.627,42.358 55.305,95.229 55.305,152.549c0,12.755 5.011,39.437 -3.335,49.986c-6.047,7.626 -20.628,5.192 -29.124,5.192c-22.015,0 -81.187,10.518 -98.66,-3.343c-9.34,-7.399 -4.872,-28.465 -5.331,-38.853c-0.982,-22.199 -7.417,-46.25 -19.699,-64.914c-54.72,-83.124 -156.746,-23.043 -164.63,58.425c-2.885,29.794 -5.153,70.01 8.662,97.374c15.636,30.965 48.257,44.725 78.421,57.512c55.178,23.339 118.336,38.529 165.531,77.089c35.945,29.343 53.114,70.726 60.863,115.32c17.208,99.061 17.697,241.615 -57.663,318.087c-95.867,97.243 -277.343,79.065 -357.232,-29.212c-40.631,-55.082 -41.949,-116.361 -41.949,-181.765m4797.24,-687.158c90.749,-10.872 188.673,48.786 222.496,132.136c29.925,73.812 17.689,162.127 17.689,240.186l0,269.402c0,50.957 6.101,106.101 -7.013,155.795c-23.593,89.682 -102.369,152.845 -194.224,161.737c-93.38,9.024 -188.612,-36.611 -230.515,-122.788c-37.847,-77.867 -22.657,-182.216 -22.657,-266.152l0,-240.185c0,-125.712 2.11,-254.567 136.322,-312.018c24.572,-10.518 51.481,-14.962 77.902,-18.113m-5592.47,661.196l28.399,-181.76l49.76,-305.104l20.015,-120.093l10.884,-42.099l40.247,-3.343l100.616,0c-62.476,241.487 -102.318,492.156 -151.25,736.79c-10.179,50.892 -20.208,101.949 -31.646,152.552c-2.985,13.21 -3.047,42.939 -14.243,51.836c-6.713,5.322 -18.867,3.343 -26.817,3.343c-24.348,0 -57.273,5.807 -80.678,-1.04c-16.899,-4.934 -17.708,-39.727 -20.589,-54.139c-11.477,-57.385 -23.578,-114.639 -35.055,-172.024c-47.603,-238.044 -85.269,-482.355 -146.059,-717.314l100.617,0c10.676,0 30.899,-3.802 39.788,3.343c8.97,7.206 8.485,28.369 10.245,38.852l18.933,113.6c19.815,118.925 38.178,238.079 57.878,357.035c6.162,37.162 4.109,111.004 28.955,139.569m733.543,-652.399l0,87.633l-3.335,33.757l-61.579,5.192l-146.063,0l-53.218,5.196l-5.203,69.459l0,201.237l159.042,0c18.471,0 50.398,-6.136 67.129,2.403c9.462,4.833 7.502,17.947 7.521,26.809c0.043,18.795 10.137,85.138 -5.199,97.274c-12.451,9.867 -47.687,3.346 -62.958,3.346l-165.535,0l0,204.484c0,15.837 -7.464,58.067 7.522,68.061c12.644,8.438 39.53,3.343 54.146,3.343l142.816,0c16.264,0 60.751,-8.438 64.433,13.179c4.879,28.628 0.493,61.637 0.481,90.688c-0.004,8.504 2.434,23.077 -5.203,29.113c-12.914,10.225 -50.31,3.343 -66.205,3.343l-292.117,0c-10.229,0 -31.612,3.963 -38.86,-5.192c-10.229,-12.918 -3.335,-50.31 -3.335,-66.213l0,-873.112l405.72,0m1009.43,0l0,94.127c-0.015,9.382 2.28,25.349 -7.899,30.51c-25.846,13.114 -83.189,1.949 -112.193,1.949c-13.349,0 -33.38,-3.347 -37.917,13.175c-6.563,23.89 -1.032,56.219 -1.032,80.952l0,723.804l-133.076,0l0,-723.804c0,-24.606 5.673,-57.324 -1.409,-80.952c-5.165,-17.265 -26.694,-13.175 -40.786,-13.175c-28.67,0 -83.59,10.711 -109.325,-1.949c-10.252,-5.064 -7.517,-21.163 -7.521,-30.51l0,-94.127l451.158,0m194.748,0l0,944.517l-97.374,0l-35.613,-5.192l-3.336,-66.213l0,-873.112l136.323,0m483.618,451.162c92.602,40.474 87.637,149.206 87.637,233.696c0,31.709 -1.848,63.163 -9.405,94.127c-36.333,148.851 -168.708,165.532 -298.942,165.532c-31.846,0 -93.776,12.077 -122.307,-1.945c-13.934,-6.883 -7.525,-43.559 -7.525,-56.477l0,-886.095c101.733,0 226.94,-20.058 321.333,24.31c94.22,44.305 116.846,140.381 116.846,235.352c0,38.852 -0.2,77.639 -17.288,113.603c-16.165,34.015 -48.547,49.659 -70.349,77.897m347.299,-451.162l0,623.187c0,59.854 -17.689,180.077 68.161,190.884c107.757,13.599 100.617,-105.065 100.617,-177.901l0,-636.17l133.076,0l0,616.697c0,108.504 11.199,210.877 -81.141,287.8c-117.37,97.797 -299.273,34.601 -345.612,-106.039c-26.813,-81.402 -11.423,-184.618 -11.423,-269.398l0,-529.06l136.322,0m568.009,0l0,808.198l266.151,0l0,136.322l-402.474,0l0,-944.52l136.323,0m619.94,0c9.964,77.119 33.788,154.466 50.568,230.449c34.181,154.79 69.171,309.356 103.348,464.146c17.72,80.235 50.275,167.872 53.814,249.925l-97.373,0c-9.837,0 -28.011,3.405 -35.182,-5.195c-8.215,-9.933 -8.442,-31.192 -10.907,-43.493c-7.141,-35.672 -13.634,-71.439 -20.774,-107.11c-4.222,-21.098 -3.767,-47.453 -30.511,-48.624c-38.787,-1.686 -78.028,-0.042 -116.846,-0.042c-12.432,0 -33.661,-3.801 -43.493,5.646c-9.22,8.862 -9.282,31.061 -11.685,43.039c-7.141,35.64 -13.08,71.635 -20.84,107.11c-2.596,11.72 -3.439,37.651 -13.534,45.346c-14.766,11.261 -57.87,3.343 -75.983,3.343c-18.305,0 -37.52,1.979 -55.178,-3.243l151.188,-678.366l40.312,-181.764l19.28,-75.952l32.652,-5.192l81.144,0m603.715,564.762l3.246,0l0,-564.762l136.323,0l0,873.113c0,15.902 6.882,53.295 -3.343,66.212c-6.459,8.18 -23.274,5.192 -32.363,5.192c-23.952,0 -85.296,11.265 -98.052,-13.176c-40.215,-77.054 -63.262,-170.988 -92.44,-252.976c-35.216,-98.899 -80.497,-197.408 -108.119,-298.61l-3.246,0l0,519.323l-3.343,40.247l-35.606,5.192l-97.374,0l0,-944.517l90.881,0l37.296,3.343l20.123,45.342l39.954,110.356l146.059,405.721m259.662,-564.762c115.128,0 276.184,-29.405 369.988,52.906c45.372,39.858 67.899,108.67 68.192,167.807c0.65,136.322 0,272.645 0,408.967c0,78.125 4.675,164.137 -44.661,230.45c-68.519,92.112 -187.607,84.387 -289.652,84.387c-19.28,0 -88.123,10.483 -100.524,-5.192c-6.752,-8.504 -3.343,-26.875 -3.343,-37.004l0,-902.321m-2612.84,126.586l0,259.662c43.031,0 99.234,8.858 136.272,-18.309c57.736,-42.323 53.603,-182.443 -3.2,-223.047c-36.627,-26.193 -90.723,-18.306 -133.072,-18.306m2749.16,0l0,619.94c0,17.528 -5.873,47.973 1.949,63.875c5.873,11.912 29.44,7.599 40.247,7.533c40.119,-0.185 86.824,-3.736 109.189,-42.195c24.861,-42.781 17.397,-105.003 17.397,-152.552l0,-321.33c0,-46.771 6.231,-111.134 -27.198,-148.982c-32.656,-36.969 -97.763,-26.289 -141.584,-26.289m629.681,1.521c-76.504,14.412 -71.408,90.623 -71.408,151.027l0,308.347c0,49.987 -7.368,106.559 1.494,155.799c9.898,54.855 60.208,79.164 112.105,70.464c73.942,-12.367 71.408,-89.971 71.408,-148.362c0,-145.053 13.21,-297.085 -0.551,-441.426c-5.873,-61.572 -46.251,-108.443 -113.048,-95.849m-1691.04,147.781c-14.219,110.129 -37.1,226.782 -64.918,334.316c34.535,10.191 101.787,10.191 136.322,0l-33.753,-168.782l-31.161,-165.534l-6.49,0m-1687.8,230.449l0,301.857c43.982,0 99.319,8.6 136.311,-20.739c50.352,-39.958 40.551,-127.072 35.995,-183.744c-2.315,-28.758 -9.151,-57.578 -32.787,-76.631c-37.262,-30.056 -95.04,-20.743 -139.519,-20.743Z" style="fill:#ff8a00;fill-rule:nonzero;"/></g></g></g></svg>